<svg width="800" height="800" viewBox="0 0 800 800" fill="none" xmlns="http://www.w3.org/2000/svg">

<g id="Group 1">
<g id="Light">
<rect id="Rectangle 2" width="100" height="100" fill="#759656"/>
<rect id="Rectangle 18" y="200" width="100" height="100" fill="#759656"/>
<rect id="Rectangle 34" y="400" width="100" height="100" fill="#759656"/>
<rect id="Rectangle 50" y="600" width="100" height="100" fill="#759656"/>
<rect id="Rectangle 11" x="100" y="100" width="100" height="100" fill="#759656"/>
<rect id="Rectangle 19" x="100" y="300" width="100" height="100" fill="#759656"/>
<rect id="Rectangle 35" x="100" y="500" width="100" height="100" fill="#759656"/>
<rect id="Rectangle 51" x="100" y="700" width="100" height="100" fill="#759656"/>
<rect id="Rectangle 12" x="300" y="100" width="100" height="100" fill="#759656"/>
<rect id="Rectangle 20" x="300" y="300" width="100" height="100" fill="#759656"/>
<rect id="Rectangle 36" x="300" y="500" width="100" height="100" fill="#759656"/>
<rect id="Rectangle 52" x="300" y="700" width="100" height="100" fill="#759656"/>
<rect id="Rectangle 14" x="500" y="100" width="100" height="100" fill="#759656"/>
<rect id="Rectangle 21" x="500" y="300" width="100" height="100" fill="#759656"/>
<rect id="Rectangle 37" x="500" y="500" width="100" height="100" fill="#759656"/>
<rect id="Rectangle 53" x="500" y="700" width="100" height="100" fill="#759656"/>
<rect id="Rectangle 16" x="700" y="100" width="100" height="100" fill="#759656"/>
<rect id="Rectangle 22" x="700" y="300" width="100" height="100" fill="#759656"/>
<rect id="Rectangle 38" x="700" y="500" width="100" height="100" fill="#759656"/>
<rect id="Rectangle 54" x="700" y="700" width="100" height="100" fill="#759656"/>
<rect id="Rectangle 4" x="200" width="100" height="100" fill="#759656"/>
<rect id="Rectangle 23" x="200" y="200" width="100" height="100" fill="#759656"/>
<rect id="Rectangle 39" x="200" y="400" width="100" height="100" fill="#759656"/>
<rect id="Rectangle 55" x="200" y="600" width="100" height="100" fill="#759656"/>
<rect id="Rectangle 6" x="400" width="100" height="100" fill="#759656"/>
<rect id="Rectangle 24" x="400" y="200" width="100" height="100" fill="#759656"/>
<rect id="Rectangle 40" x="400" y="400" width="100" height="100" fill="#759656"/>
<rect id="Rectangle 56" x="400" y="600" width="100" height="100" fill="#759656"/>
<rect id="Rectangle 8" x="600" width="100" height="100" fill="#759656"/>
<rect id="Rectangle 25" x="600" y="200" width="100" height="100" fill="#759656"/>
<rect id="Rectangle 41" x="600" y="400" width="100" height="100" fill="#759656"/>
<rect id="Rectangle 57" x="600" y="600" width="100" height="100" fill="#759656"/>
</g>
<g id="Dark">
<rect id="Rectangle 3" x="100" width="100" height="100" fill="#EEEED2"/>
<rect id="Rectangle 26" x="100" y="200" width="100" height="100" fill="#EEEED2"/>
<rect id="Rectangle 42" x="100" y="400" width="100" height="100" fill="#EEEED2"/>
<rect id="Rectangle 58" x="100" y="600" width="100" height="100" fill="#EEEED2"/>
<rect id="Rectangle 10" y="100" width="100" height="100" fill="#EEEED2"/>
<rect id="Rectangle 27" y="300" width="100" height="100" fill="#EEEED2"/>
<rect id="Rectangle 43" y="500" width="100" height="100" fill="#EEEED2"/>
<rect id="Rectangle 59" y="700" width="100" height="100" fill="#EEEED2"/>
<rect id="Rectangle 13" x="200" y="100" width="100" height="100" fill="#EEEED2"/>
<rect id="Rectangle 28" x="200" y="300" width="100" height="100" fill="#EEEED2"/>
<rect id="Rectangle 44" x="200" y="500" width="100" height="100" fill="#EEEED2"/>
<rect id="Rectangle 60" x="200" y="700" width="100" height="100" fill="#EEEED2"/>
<rect id="Rectangle 15" x="400" y="100" width="100" height="100" fill="#EEEED2"/>
<rect id="Rectangle 29" x="400" y="300" width="100" height="100" fill="#EEEED2"/>
<rect id="Rectangle 45" x="400" y="500" width="100" height="100" fill="#EEEED2"/>
<rect id="Rectangle 61" x="400" y="700" width="100" height="100" fill="#EEEED2"/>
<rect id="Rectangle 17" x="600" y="100" width="100" height="100" fill="#EEEED2"/>
<rect id="Rectangle 30" x="600" y="300" width="100" height="100" fill="#EEEED2"/>
<rect id="Rectangle 46" x="600" y="500" width="100" height="100" fill="#EEEED2"/>
<rect id="Rectangle 62" x="600" y="700" width="100" height="100" fill="#EEEED2"/>
<rect id="Rectangle 5" x="300" width="100" height="100" fill="#EEEED2"/>
<rect id="Rectangle 31" x="300" y="200" width="100" height="100" fill="#EEEED2"/>
<rect id="Rectangle 47" x="300" y="400" width="100" height="100" fill="#EEEED2"/>
<rect id="Rectangle 63" x="300" y="600" width="100" height="100" fill="#EEEED2"/>
<rect id="Rectangle 7" x="500" width="100" height="100" fill="#EEEED2"/>
<rect id="Rectangle 32" x="500" y="200" width="100" height="100" fill="#EEEED2"/>
<rect id="Rectangle 48" x="500" y="400" width="100" height="100" fill="#EEEED2"/>
<rect id="Rectangle 64" x="500" y="600" width="100" height="100" fill="#EEEED2"/>
<rect id="Rectangle 9" x="700" width="100" height="100" fill="#EEEED2"/>
<rect id="Rectangle 33" x="700" y="200" width="100" height="100" fill="#EEEED2"/>
<rect id="Rectangle 49" x="700" y="400" width="100" height="100" fill="#EEEED2"/>
<rect id="Rectangle 65" x="700" y="600" width="100" height="100" fill="#EEEED2"/>
</g>
</g>
</svg>
