<svg xmlns:dc="http://purl.org/dc/elements/1.1/" xmlns:cc="http://creativecommons.org/ns#" xmlns:rdf="http://www.w3.org/1999/02/22-rdf-syntax-ns#" xmlns:svg="http://www.w3.org/2000/svg" xmlns="http://www.w3.org/2000/svg" xmlns:sodipodi="http://sodipodi.sourceforge.net/DTD/sodipodi-0.dtd" xmlns:inkscape="http://www.inkscape.org/namespaces/inkscape" viewBox="0 0 30 30" version="1.1" id="svg822" inkscape:version="0.92.4 (f8dce91, 2019-08-02)" sodipodi:docname="themes.svg" fill="#ffffff" stroke="#ffffff"><g id="SVGRepo_bgCarrier" stroke-width="0"></g><g id="SVGRepo_tracerCarrier" stroke-linecap="round" stroke-linejoin="round"></g><g id="SVGRepo_iconCarrier"> <defs id="defs816"> <inkscape:path-effect effect="copy_rotate" starting_point="17,304.0625" origin="15,304.0625" id="path-effect1009" is_visible="true" copies_to_360="true" fuse_paths="false" starting_angle="0" rotation_angle="60.2" num_copies="8"></inkscape:path-effect> <inkscape:path-effect only_selected="false" apply_with_weight="true" apply_no_weight="true" helper_size="0" steps="2" weight="33.333333" is_visible="true" id="path-effect2111" effect="bspline"></inkscape:path-effect> <inkscape:path-effect only_selected="false" apply_with_weight="true" apply_no_weight="true" helper_size="0" steps="2" weight="33.333333" is_visible="true" id="path-effect2107" effect="bspline"></inkscape:path-effect> <inkscape:path-effect only_selected="false" apply_with_weight="true" apply_no_weight="true" helper_size="0" steps="2" weight="33.333333" is_visible="true" id="path-effect2096" effect="bspline"></inkscape:path-effect> <inkscape:path-effect only_selected="false" apply_with_weight="true" apply_no_weight="true" helper_size="0" steps="2" weight="33.333333" is_visible="true" id="path-effect2079" effect="bspline"></inkscape:path-effect> <marker style="overflow:visible" refY="0" refX="0" orient="auto" inkscape:stockid="Arrow2Sstart" inkscape:isstock="true" id="Arrow2Sstart"> <path inkscape:connector-curvature="0" transform="matrix(0.3,0,0,0.3,-0.69,0)" style="fill:#ffffff;fill-opacity:1;stroke:#ffffff;stroke-opacity:1" id="Arrow2SstartPath" d="M 8.72,4.03 -2.21,0.02 8.72,-4 c -1.75,2.37 -1.74,5.62 0,8.03 z"></path> </marker> <marker style="overflow:visible" refY="0" refX="0" orient="auto" inkscape:stockid="Arrow2Send" inkscape:isstock="true" id="Arrow2Send"> <path inkscape:connector-curvature="0" transform="matrix(-0.3,0,0,-0.3,0.69,0)" style="fill:#ffffff;fill-opacity:1;stroke:#ffffff;stroke-opacity:1" id="Arrow2SendPath" d="M 8.72,4.03 -2.21,0.02 8.72,-4 c -1.75,2.37 -1.74,5.62 0,8.03 z"></path> </marker> <inkscape:path-effect only_selected="false" apply_with_weight="true" apply_no_weight="true" helper_size="0" steps="2" weight="33.333333" is_visible="true" id="path-effect2111-2" effect="bspline"></inkscape:path-effect> <inkscape:path-effect only_selected="false" apply_with_weight="true" apply_no_weight="true" helper_size="0" steps="2" weight="33.333333" is_visible="true" id="path-effect2107-9" effect="bspline"></inkscape:path-effect> <inkscape:path-effect only_selected="false" apply_with_weight="true" apply_no_weight="true" helper_size="0" steps="2" weight="33.333333" is_visible="true" id="path-effect2096-1" effect="bspline"></inkscape:path-effect> <inkscape:path-effect only_selected="false" apply_with_weight="true" apply_no_weight="true" helper_size="0" steps="2" weight="33.333333" is_visible="true" id="path-effect2079-2" effect="bspline"></inkscape:path-effect> <marker style="overflow:visible" refY="0" refX="0" orient="auto" inkscape:stockid="Arrow2Sstart" inkscape:isstock="true" id="Arrow2Sstart-7"> <path inkscape:connector-curvature="0" transform="matrix(0.3,0,0,0.3,-0.69,0)" style="fill:#ffffff;fill-opacity:1;stroke:#ffffff;stroke-opacity:1" id="Arrow2SstartPath-0" d="M 8.72,4.03 -2.21,0.02 8.72,-4 c -1.75,2.37 -1.74,5.62 0,8.03 z"></path> </marker> <marker style="overflow:visible" refY="0" refX="0" orient="auto" inkscape:stockid="Arrow2Send" inkscape:isstock="true" id="Arrow2Send-9"> <path inkscape:connector-curvature="0" transform="matrix(-0.3,0,0,-0.3,0.69,0)" style="fill:#ffffff;fill-opacity:1;stroke:#ffffff;stroke-opacity:1" id="Arrow2SendPath-3" d="M 8.72,4.03 -2.21,0.02 8.72,-4 c -1.75,2.37 -1.74,5.62 0,8.03 z"></path> </marker> </defs> <sodipodi:namedview id="base" pagecolor="#ffffff" bordercolor="#666666" borderopacity="1.0" inkscape:pageopacity="0.0" inkscape:pageshadow="2" inkscape:zoom="17.833333" inkscape:cx="28.454415" inkscape:cy="14.954886" inkscape:document-units="px" inkscape:current-layer="layer1" showgrid="true" units="px" inkscape:window-width="1366" inkscape:window-height="713" inkscape:window-x="0" inkscape:window-y="0" inkscape:window-maximized="1" showguides="false" inkscape:guide-bbox="true"> <sodipodi:guide position="21.126168,22.794393" orientation="1,0" id="guide1575" inkscape:locked="false"></sodipodi:guide> <sodipodi:guide position="22.682243,23.285047" orientation="1,0" id="guide1635" inkscape:locked="false"></sodipodi:guide> <sodipodi:guide position="22.682243,7.6455921" orientation="0,1" id="guide1639" inkscape:locked="false"></sodipodi:guide> <sodipodi:guide position="18.859863,18.859863" orientation="1,0" id="guide1242" inkscape:locked="false"></sodipodi:guide> <inkscape:grid type="xygrid" id="grid1103"></inkscape:grid> </sodipodi:namedview> <metadata id="metadata819"> <rdf:rdf> <cc:work rdf:about=""> <dc:format>image/svg+xml</dc:format> <dc:type rdf:resource="http://purl.org/dc/dcmitype/StillImage"></dc:type> <dc:title> </dc:title> </cc:work> </rdf:rdf> </metadata> <g inkscape:label="Layer 1" inkscape:groupmode="layer" id="layer1" transform="translate(0,-289.0625)"> <path style="opacity:1;fill:#ffffff;fill-opacity:1;stroke:none;stroke-width:0.5;stroke-miterlimit:4;stroke-dasharray:none;stroke-opacity:1" d="M 25.537109 3.7617188 C 24.836946 3.8162882 22.964379 5.2074956 20.996094 7.1757812 L 13.570312 14.601562 C 13.902536 14.724857 14.212289 14.899789 14.46875 15.15625 C 14.710976 15.398476 14.876654 15.689338 15 16 L 22.410156 8.5898438 C 24.659626 6.3403744 26.153456 4.2140028 25.761719 3.8222656 C 25.712752 3.7732985 25.637133 3.7539231 25.537109 3.7617188 z M 15.019531 8.3261719 C 8.3815008 8.3261719 3.0000009 12.507534 3 17.664062 C 3 22.820602 8.3815008 27.00005 15.019531 27 C 17.677358 27 19.783782 26.449928 21.736328 25.642578 C 23.089836 25.082918 24.417562 24.040629 24.642578 22.662109 C 24.696636 22.330929 24.547479 21.657501 24.0625 20.863281 C 23.365581 19.721971 22.10879 18.400008 22.15625 18.023438 C 22.234141 17.405477 23.124983 17.846492 24.339844 18.013672 C 25.554704 18.180862 27 19.074613 27 16.220703 C 27 14.685429 25.444624 12.521453 22.982422 10.845703 L 15.822266 18.005859 C 15.821396 18.013376 15.824926 18.021519 15.824219 18.029297 C 15.691928 19.102931 15.185417 20.095833 14.386719 20.894531 C 13.211131 22.070119 11.98904 22.232572 10.9375 22.464844 C 9.8859594 22.697116 8.9863281 22.783203 8.9863281 22.783203 L 6.5292969 23.025391 L 6.8046875 20.572266 C 6.8046875 20.572266 6.901334 19.682543 7.1445312 18.642578 C 7.3877279 17.602614 7.5730877 16.395662 8.7304688 15.238281 C 9.5093963 14.459354 10.476433 13.971271 11.519531 13.824219 L 16.871094 8.4707031 C 16.266212 8.3855978 15.651375 8.3261719 15.019531 8.3261719 z M 12.269531 15.773438 C 11.567804 15.722799 10.770218 16.026657 10.144531 16.652344 C 9.1434314 17.653444 8.7929688 20.792969 8.7929688 20.792969 C 8.7929688 20.792969 11.971556 20.481569 12.972656 19.480469 C 13.973755 18.47937 14.152143 17.034955 13.371094 16.253906 C 13.0782 15.961013 12.690568 15.803821 12.269531 15.773438 z " transform="translate(0,289.0625)" id="path818"></path> <g id="g1572" transform="rotate(-45,11.318581,330.3169)"></g> </g> </g></svg>