<svg xmlns="http://www.w3.org/2000/svg" viewBox="0 0 34.5 34.82"><defs><style>.cls-1{stroke:#000;stroke-linejoin:round;fill-rule:evenodd;}.cls-1,.cls-2{stroke-width:1.5px;}.cls-2{fill:none;stroke:#fff;stroke-linecap:round;}</style></defs><g id="Layer_2" data-name="Layer 2"><g id="Layer_1-2" data-name="Layer 1"><path class="cls-1" d="M3.75,31.25c3.39-1,10.11.43,13.5-2,3.39,2.43,10.11,1,13.5,2a7.92,7.92,0,0,1,3,2c-.68,1-1.65,1-3,.5-3.39-1-10.11.46-13.5-1-3.39,1.46-10.11,0-13.5,1-1.35.49-2.32.47-3-.5A4.2,4.2,0,0,1,3.75,31.25Z"/><path class="cls-1" d="M9.75,27.25c2.5,2.5,12.5,2.5,15,0,.5-1.5,0-2,0-2,0-2.5-2.5-4-2.5-4,5.5-1.5,6-11.5-5-15.5-11,4-10.5,14-5,15.5,0,0-2.5,1.5-2.5,4C9.75,25.25,9.25,25.75,9.75,27.25Z"/><path class="cls-1" d="M19.75,3.25a2.5,2.5,0,1,1-2.5-2.5A2.5,2.5,0,0,1,19.75,3.25Z"/><path class="cls-2" d="M12.25,21.25h10m-12.5,4h15m-7.5-14.5v5m-2.5-2.5h5"/></g></g></svg>