<svg xmlns="http://www.w3.org/2000/svg" viewBox="0 0 34.79 35.13"><defs><style>.cls-1,.cls-4{fill:none;}.cls-1,.cls-2,.cls-3{stroke:#000;}.cls-1,.cls-3,.cls-4{stroke-linecap:round;}.cls-1,.cls-2,.cls-3,.cls-4{stroke-width:1.5px;}.cls-2,.cls-3{fill-rule:evenodd;}.cls-3,.cls-4{stroke-linejoin:round;}.cls-4{stroke:#fff;}</style></defs><g id="Layer_2" data-name="Layer 2"><g id="Layer_1-2" data-name="Layer 1"><path class="cls-1" d="M17.42,6.38V.75"/><path class="cls-2" d="M17.42,19.75s4.5-7.5,3-10.5c0,0-1-2.5-3-2.5s-3,2.5-3,2.5c-1.5,3,3,10.5,3,10.5"/><path class="cls-3" d="M6.42,31.75c5.5,3.5,15.5,3.5,21,0v-7s9-4.5,6-10.5c-4-6.5-13.5-3.5-16,4v0c-3.5-7.5-13-10.5-16-4-3,6,5,10,5,10Z"/><path class="cls-1" d="M14.92,2.75h5"/><path class="cls-4" d="M26.92,24.25s8.5-4,6-9.65c-3.88-5.85-13-1.85-15.53,4.65v0c-2.5-6.5-12.59-10.5-15.5-4.65-2.5,5.65,4.85,9,4.85,9"/><path class="cls-4" d="M6.42,24.75c5.5-3,15.5-3,21,0m-21,3.5c5.5-3,15.5-3,21,0m-21,3.5c5.5-3,15.5-3,21,0"/></g></g></svg>