<svg xmlns="http://www.w3.org/2000/svg" viewBox="0 0 33.53 33.5"><defs><style>.cls-1{fill:#fff;}.cls-1,.cls-2,.cls-3{stroke:#000;stroke-linecap:round;stroke-linejoin:round;fill-rule:evenodd;}.cls-1,.cls-2{stroke-width:1.5px;}.cls-3{stroke-width:1.5px;}</style></defs><g id="Layer_2" data-name="Layer 2"><g id="Layer_1-2" data-name="Layer 1"><path class="cls-1" d="M16.75,3.75c10.5,1,16.5,8,16,29h-23c0-9,10-6.5,8-21"/><path class="cls-1" d="M18.75,11.75c.38,2.91-5.55,7.37-8,9-3,2-2.82,4.34-5,4-1-.94,1.41-3,0-3-1,0,.19,1.23-1,2-1,0-4,1-4-4,0-2,6-12,6-12s1.89-1.9,2-3.5c-.73-1-.5-2-.5-3,1-1,3,2.5,3,2.5h2a6.72,6.72,0,0,1,2.5-3c1,0,1,3,1,3"/><path class="cls-2" d="M4.25,19.25a.5.5,0,1,1-.5-.5A.5.5,0,0,1,4.25,19.25Z"/><path class="cls-3" d="M9.68,9.5c-.41.72-.94,1.19-1.18,1.05S8.4,9.72,8.82,9,9.76,7.81,10,8,10.1,8.78,9.68,9.5Z"/></g></g></svg>