<svg xmlns="http://www.w3.org/2000/svg" viewBox="0 0 38.5 35.25"><defs><style>.cls-1,.cls-2{fill:#fff;fill-rule:evenodd;}.cls-1,.cls-2,.cls-3{stroke:#000;stroke-linejoin:round;stroke-width:1.5px;}.cls-1,.cls-3{stroke-linecap:round;}.cls-3{fill:none;}</style></defs><g id="Layer_2" data-name="Layer 2"><g id="Layer_1-2" data-name="Layer 1"><path class="cls-1" d="M4.75,7.25a2,2,0,1,1-2-2A2,2,0,0,1,4.75,7.25Z"/><path class="cls-1" d="M21.25,2.75a2,2,0,1,1-2-2A2,2,0,0,1,21.25,2.75Z"/><path class="cls-1" d="M37.75,7.25a2,2,0,1,1-2-2A2,2,0,0,1,37.75,7.25Z"/><path class="cls-1" d="M12.75,3.75a2,2,0,1,1-2-2A2,2,0,0,1,12.75,3.75Z"/><path class="cls-1" d="M29.75,4.25a2,2,0,1,1-2-2A2,2,0,0,1,29.75,4.25Z"/><path class="cls-2" d="M5.75,21.25c8.5-1.5,21-1.5,27,0l2-12-7,11v-14l-5.5,13.5-3-15-3,15-5.5-14v14.5l-7-11Z"/><path class="cls-2" d="M5.75,21.25c0,2,1.5,2,2.5,4,1,1.5,1,1,.5,3.5a3.23,3.23,0,0,0-1.5,2.5c-1.5,1.5.5,2.5.5,2.5a88.54,88.54,0,0,0,23,0s1.5-1,0-2.5a2.22,2.22,0,0,0-1-2.5c-.5-2.5-.5-2,.5-3.5,1-2,2.5-2,2.5-4A81.56,81.56,0,0,0,5.75,21.25Z"/><path class="cls-3" d="M8.25,25.25c3.5-1,18.5-1,22,0"/><path class="cls-3" d="M8.75,28.75a73.88,73.88,0,0,1,21,0"/></g></g></svg>